# xmcd
# 
# Track frame offsets:
#     150
#     16627
#     29602
#     46337
#     66127
#     81202
#     94200
#     106227
#     118050
#     132352
#     151852
#     170452
#     185377
#     204900
#     220575
#     238552
# 
# Disc length: 3373
# 
# Revision: 2
# Processed by: cddbd v1.5.2PL0 Copyright (c) Steve Scherf et al.
# Submitted via: fre:ac v1.0.27
# 
DISCID=cb0d2b10
DTITLE=Truck Stop - StarCollection CD1
DYEAR=1997
DGENRE=Country and Western
TTITLE0=Angeln entspannt (Live)
TTITLE1=Die Frau mit dem Gurt
TTITLE2=Old Texys Town, die Western Stadt (Live)
TTITLE3=Cowboy bei der Bahn (Live)
TTITLE4=Easy Rider
TTITLE5=Der wilde, wilde Westen
TTITLE6=Freizeit Cowboy (Live)
TTITLE7=Ich pfeife auf die Autobahn
TTITLE8=Nashville Tennessee
TTITLE9=Nein Danke, ich rauch' nicht mehr
TTITLE10=Route 66
TTITLE11=Emmylou, Emmylou
TTITLE12=Wohin der Wind Dich treibt
TTITLE13=Jeden Tag in einer anderen Stadt
TTITLE14=Mutter
TTITLE15=Der König von der Autobahn
EXTD=
EXTT0=
EXTT1=
EXTT2=
EXTT3=
EXTT4=
EXTT5=
EXTT6=
EXTT7=
EXTT8=
EXTT9=
EXTT10=
EXTT11=
EXTT12=
EXTT13=
EXTT14=
EXTT15=
PLAYORDER=
